<?xml version="1.0" encoding="UTF-8"?>
<!-- Created with Inkscape (http://www.inkscape.org/) -->
<svg width="114.02mm" height="44.533mm" version="1.1" viewBox="0 0 114.02 44.533"
   xmlns="http://www.w3.org/2000/svg">
   <defs>
      <clipPath id="clipPath1721">
         <path transform="translate(-255.16 -547.1)" d="m0 7560h1920v-7560h-1920z" />
      </clipPath>
      <clipPath id="clipPath1727">
         <path transform="translate(-439.69 -538.95)" d="m0 7560h1920v-7560h-1920z" />
      </clipPath>
      <clipPath id="clipPath1729">
         <path transform="translate(-255.16 -456.57)" d="m0 7560h1920v-7560h-1920z" />
      </clipPath>
   </defs>
   <g transform="translate(-83.344 -107.42)">
      <path transform="matrix(.26458 0 0 -.26458 113.54 113.5)"
         d="m5.749 22.987c-6.772 0-12.025-1.848-15.754-5.543-3.728-3.694-5.5918-8.6884-5.5918-14.982v-56.445h16.01v41.668h13.752v12.316h-14.164v2.3574c0 5.338 2.4271 8.0078 7.2871 8.0078 2.464 0 4.6188-0.65318 6.4668-1.9512l4.207 11.596c-1.434 0.959-3.2307 1.6949-5.3867 2.2109-2.155 0.509-4.4312 0.76563-6.8262 0.76563zm116.55-20.936c-3.765 0-7.2192-0.63154-10.365-1.8945-3.148-1.271-5.7824-3.0646-7.9024-5.3906v6.4649h-15.291v-55.215h16.008v27.301c0 4.925 1.1968 8.6377 3.5938 11.137 2.394 2.493 5.6095 3.7441 9.6465 3.7441 3.626 0 6.3965-1.0764 8.3145-3.2324 1.913-2.157 2.8711-5.4238 2.8711-9.8027v-29.147h16.012v31.611c0 8.072-2.1045 14.164-6.3125 18.27-4.208 4.103-9.7332 6.1543-16.574 6.1543zm-99.365-0.82031v-31.197c0-8.214 2.1223-14.403 6.3633-18.576 4.243-4.173 9.9892-6.2598 17.242-6.2598 3.419 0 6.6019 0.63149 9.5449 1.8965 2.941 1.266 5.4728 3.0942 7.5938 5.4922v-6.5703h15.189v55.215h-16.014v-27.299c0-4.926-1.1603-8.6377-3.4863-11.137-2.326-2.498-5.4063-3.7441-9.2363-3.7441-7.458 0-11.186 4.4478-11.186 13.342v28.838h-16.012z"
         clip-path="url(#clipPath1721)"
         fill="#7fb932" />
      <path transform="matrix(.26458 0 0 -.26458 162.36 115.66)"
         d="m-227.98 15.625c-2.0565-0.072555-4.1484-0.64542-6.1719-1.7168-7.752-4.106-8.8116-15.026-2.0176-21.309 15.54-14.367 11.449-31.448 11.842-31.969 0 0 12.063 10.331 12.773 27.877 0.74425 18.374-7.5142 27.432-16.426 27.117zm-51.981-4.6699c-9.8117 0.05402-16.721-5.8892-18.404-14.938-2.147-11.55 8.4295-21.759 20.689-19.859 28.009 4.344 42.528-14.169 43.4-14.199 0 0-0.79618 21.267-18.619 36.625-10.048 8.6586-19.435 12.329-27.066 12.371zm284.23-1.4043c-3.335 0-6.2745-0.5523-8.8145-1.6543-2.546-1.108-4.5075-2.6582-5.8945-4.6602-1.384-2.005-2.0762-4.3117-2.0762-6.9316 0-1.952 0.43569-3.8391 1.3047-5.6621 0.875-1.824 2.2853-3.7343 4.2383-5.7363-4.158-2.31-7.1749-4.7354-9.0469-7.2774-1.879-2.539-2.8125-5.4774-2.8125-8.8184 0-2.822 0.88521-5.367 2.6582-7.625 1.773-2.258 4.2226-4.0135 7.3516-5.2715 3.134-1.257 6.6478-1.8887 10.553-1.8887 6.877 0 12.882 2.0039 18.022 6.0059l6.4668-6.0059 6.543 7.6231-6.3125 5.8535c2.26 3.389 3.9037 7.4722 4.9297 12.244l-9.625 3.0039c-0.618-3.13-1.5183-5.9296-2.6973-8.3926l-9.8555 9.1641c3.696 2.003 6.3788 4.0833 8.0488 6.2363 1.665 2.158 2.502 4.6225 2.502 7.3945 0 3.8-1.4153 6.8138-4.2383 9.0488-2.82 2.233-6.5702 3.3496-11.244 3.3496zm0-8.1621c1.698 0 3.0076-0.41342 3.9316-1.2324 0.926-0.823 1.3848-1.9013 1.3848-3.2363 0-1.286-0.51497-2.4771-1.543-3.5801-1.027-1.107-2.8478-2.3483-5.4668-3.7363-1.642 1.589-2.7455 2.8625-3.3125 3.8145-0.563 0.948-0.84375 1.96-0.84375 3.041 0 1.434 0.52513 2.618 1.5781 3.541 1.049 0.928 2.4795 1.3887 4.2715 1.3887zm-4.6211-22.641 13.018-12.168c-2.981-2.108-6.3419-3.1582-10.09-3.1582-2.928 0-5.2639 0.61666-7.0059 1.8477-1.746 1.231-2.6191 2.8486-2.6191 4.8516 0 1.694 0.51307 3.208 1.5391 4.543 1.028 1.334 2.7492 2.699 5.1582 4.084zm-266.62-9.4824c-8.4531 0.12354-12.283-4.977-10.572-10.309 1.457-4.536 7.196-6.1384 11.207-3.1074 9.166 6.945 17.909 3.132 18.227 3.291 0 0-4.3783 7.4363-13.695 9.4863-1.8766 0.41281-3.6006 0.61579-5.166 0.63867zm328.61-44.318c-8.9128 0.31487-17.171-8.7406-16.424-27.115 0.709-17.546 12.773-27.877 12.773-27.877 0.389 0.522-3.7021 17.602 11.838 31.967 6.796 6.286 5.7344 17.207-2.0156 21.311-2.0239 1.0714-4.1151 1.6422-6.1719 1.7148zm51.979-4.668c-7.6314-0.042014-17.017-3.7123-27.064-12.373-17.823-15.356-18.621-36.619-18.621-36.619 0.874 0.028 15.393 18.54 43.404 14.197 12.258-1.9 22.836 8.3085 20.688 19.857-1.6836 9.0472-8.5945 14.992-18.406 14.938zm-12.992-41.688c-1.5653-0.02283-3.2896-0.2257-5.166-0.63867-9.317-2.053-13.695-9.4902-13.695-9.4902 0.318-0.158 9.0616 3.6579 18.227-3.2871 4.009-3.033 9.7511-1.4276 11.205 3.1074 1.712 5.3291-2.1178 10.432-10.57 10.309z"
         clip-path="url(#clipPath1727)"
         fill="#00add8" />
      <path transform="matrix(.26458 0 0 -.26458 113.54 137.45)"
         d="m5.749 22.989c-6.772 0-12.025-1.844-15.754-5.541-3.728-3.694-5.5918-8.6924-5.5918-14.986v-56.441h16.01v41.666h13.748v12.314h-14.16v2.3613c0 5.336 2.4261 8.0039 7.2891 8.0039 2.462 0 4.6169-0.65327 6.4609-1.9473l4.2109 11.594c-1.435 0.957-3.2337 1.694-5.3887 2.209-2.154 0.51-4.4312 0.76758-6.8242 0.76758zm124.15-0.78516v-51.455c0-8.14 2.1894-14.432 6.5684-18.879 4.376-4.449 10.707-6.668 18.984-6.668 4.107 0 7.6608 0.61375 10.674 1.8438 3.011 1.234 5.5427 3.2181 7.5957 5.9531 2.054-2.735 4.5996-4.7191 7.6446-5.9531 3.044-1.23 6.5515-1.8438 10.52-1.8438 8.212 0 14.537 2.219 18.986 6.668 4.445 4.447 6.6738 10.739 6.6738 18.879v30.484h-16.014v-29.25c0-4.587-0.78534-7.9554-2.3613-10.109-1.57-2.155-4.0347-3.2305-7.3887-3.2305-3.422 0-5.9508 1.0932-7.5898 3.2832-1.644 2.189-2.4668 5.5397-2.4668 10.057v29.25h-16.008v-29.25c0-4.517-0.82085-7.8677-2.4648-10.057-1.641-2.19-4.1738-3.2832-7.5938-3.2832-3.353 0-5.8176 1.0755-7.3906 3.2305-1.577 2.154-2.3613 5.5224-2.3613 10.109v50.221h-16.008zm-105.86-0.039062v-57.881c0-6.088 1.7453-10.789 5.2363-14.107 3.487-3.321 8.3453-4.9746 14.572-4.9746 2.873 0 5.6436 0.44203 8.3106 1.332l-0.7168 12.416c-0.48-0.274-1.145-0.5108-2-0.7168-0.857-0.206-1.6966-0.31055-2.5176-0.31055-2.188 0-3.8841 0.63339-5.0781 1.9004-1.196 1.264-1.7969 3.0627-1.7969 5.3867v56.955h-16.01zm64.609-20.111c-5.817 0-11.028-1.2155-15.65-3.6445-4.617-2.429-8.2282-5.7964-10.824-10.107-2.605-4.311-3.9004-9.2038-3.9004-14.676 0-5.474 1.2954-10.365 3.9004-14.676 2.596-4.311 6.2072-7.6814 10.824-10.107 4.622-2.429 9.8334-3.6406 15.65-3.6406 5.816 0 11.014 1.2116 15.602 3.6406 4.579 2.426 8.1724 5.7964 10.775 10.107 2.597 4.311 3.8984 9.2018 3.8984 14.676 0 5.472-1.3014 10.365-3.8984 14.676-2.603 4.311-6.1964 7.6784-10.775 10.107-4.588 2.429-9.7856 3.6445-15.602 3.6445zm0-13.137c4.106 0 7.4774-1.3863 10.107-4.1563 2.635-2.768 3.9551-6.4828 3.9551-11.135 0-4.655-1.3201-8.3648-3.9551-11.135-2.63-2.772-6.0014-4.1543-10.107-4.1543-4.103 0-7.4912 1.3823-10.158 4.1543-2.67 2.77-4.0059 6.4798-4.0059 11.135 0 4.652 1.3359 8.3668 4.0059 11.135 2.667 2.77 6.0552 4.1563 10.158 4.1563z"
         clip-path="url(#clipPath1729)"
         fill="#2756a1" />
   </g>
</svg>