<?xml version="1.0" encoding="UTF-8"?>
<!-- Created with Inkscape (http://www.inkscape.org/) -->
<svg width="47.928mm" height="59.112mm" version="1.1" viewBox="0 0 47.928 59.112" xmlns="http://www.w3.org/2000/svg">
 <defs>
  <clipPath id="clipPath1043">
   <path transform="translate(-851.8 -6117.9)" d="m0 7560h1920v-7560h-1920z"/>
  </clipPath>
  <clipPath id="clipPath1046">
   <path transform="matrix(1.3333 0 0 -1.3333 0 10080)" d="m0 7560h1920v-7560h-1920z"/>
  </clipPath>
  <linearGradient id="linearGradient1045" x2="1" gradientTransform="matrix(-56.721 56.721 56.721 56.721 845.55 6060.1)" gradientUnits="userSpaceOnUse">
   <stop stop-color="#fcf29a" offset="0"/>
   <stop stop-color="#8cbf44" offset=".99828"/>
   <stop stop-color="#8cbf44" offset="1"/>
  </linearGradient>
  <clipPath id="clipPath1048">
   <path transform="matrix(1.3333 0 0 -1.3333 0 10080)" d="m0 7560h1920v-7560h-1920z"/>
  </clipPath>
  <linearGradient id="linearGradient1047" x2="1" gradientTransform="matrix(-41.529 41.529 41.529 41.529 850.61 6048)" gradientUnits="userSpaceOnUse">
   <stop stop-color="#dde172" offset="0"/>
   <stop stop-color="#3b9847" offset="1"/>
  </linearGradient>
  <clipPath id="clipPath1050">
   <path transform="matrix(1.3333 0 0 -1.3333 0 10080)" d="m0 7560h1920v-7560h-1920z"/>
  </clipPath>
  <linearGradient id="linearGradient1049" x2="1" gradientTransform="matrix(-52.695 52.695 52.695 52.695 832.52 6011.5)" gradientUnits="userSpaceOnUse">
   <stop stop-color="#23a74f" offset="0"/>
   <stop stop-color="#97c23f" offset="1"/>
  </linearGradient>
  <clipPath id="clipPath1053">
   <path transform="matrix(1.3333 0 0 -1.3333 0 10080)" d="m0 7560h1920v-7560h-1920z"/>
  </clipPath>
  <linearGradient id="linearGradient1052" x2="1" gradientTransform="matrix(-58.067 58.067 58.067 58.067 833.03 6044.9)" gradientUnits="userSpaceOnUse">
   <stop stop-color="#239887" offset="0"/>
   <stop stop-color="#269980" offset=".98539"/>
   <stop stop-color="#269980" offset="1"/>
  </linearGradient>
  <linearGradient id="linearGradient1054" x2="1" gradientTransform="matrix(-24.915 -24.915 24.915 -24.915 115.17 -437.58)" gradientUnits="userSpaceOnUse">
   <stop stop-color="#1dbbee" offset="0"/>
   <stop stop-color="#1c4999" offset="1"/>
  </linearGradient>
  <linearGradient id="linearGradient1056" x2="1" gradientTransform="matrix(-7.9061 -7.9061 7.9061 -7.9061 108.04 -467.12)" gradientUnits="userSpaceOnUse">
   <stop stop-color="#ffdc2d" offset="0"/>
   <stop stop-color="#ea5b26" offset="1"/>
  </linearGradient>
  <clipPath id="clipPath1058">
   <path transform="translate(-688.42 -5944.5)" d="m0 7560h1920v-7560h-1920z"/>
  </clipPath>
  <clipPath id="clipPath1078">
   <path transform="translate(-710.4 -5988)" d="m0 7560h1920v-7560h-1920z"/>
  </clipPath>
  <clipPath id="clipPath1082">
   <path transform="translate(-850.28 -5990.4)" d="m0 7560h1920v-7560h-1920z"/>
  </clipPath>
 </defs>
 <g transform="translate(-147.37 -189.97)">
  <g transform="matrix(.75 0 0 .75 90.024 547.47)">
   <path transform="matrix(.35278 0 0 -.35278 136.72 -468.62)" d="m0 0c-10.139 10.707-21.895 13.594-31.522 13.437 5e-3 5e-3 9e-3 0.01 0.014 0.016-2.289-0.037-4.46-0.243-6.458-0.559-19.986-3.173-37.141-21.542-33.091-44.24 0.851-4.77 2.081-11.017 3.439-18.019-0.01-7e-3 -0.021-0.013-0.032-0.02 2.878-14.829 6.342-33.092 8.01-47.982 5.496-49.052 16.721-39.808 19.363-21.65 1.542 10.607 10.932 32.311 23.555 48.498 0.016 0.08 0.028 0.159 0.044 0.238 2.005 2.569 4.091 5.002 6.243 7.225 5.329 5.505 12.478 13.601 16.845 23.033 6e-3 3e-3 0.011 6e-3 0.017 9e-3 5.576 12.029 6.624 26.232-6.427 40.014" clip-path="url(#clipPath1043)" fill="#ffffff "/>
   <g transform="matrix(.26458 0 0 .26458 -163.78 -977.37)" clip-path="url(#clipPath1046)" opacity=".75">
    <path transform="matrix(1.3333 0 0 -1.3333 0 10080)" d="m851.8 6117.9c-12.545 13.248-27.566 14.527-37.966 12.876-12.19-1.935-23.316-9.53-29.231-20.305 4.553-12.396 7.874-27.976 8.738-44.426 1.352-25.757 13.52-32.035 19.982-32.039 9.178-0.01 15.043 8.535 20.134 18.428 5.541 10.767 13.832 20.326 24.771 25.452 5.575 12.029 6.624 26.233-6.428 40.014" fill="url(#linearGradient1045)"/>
   </g>
   <g transform="matrix(.26458 0 0 .26458 -163.78 -977.37)" clip-path="url(#clipPath1048)" opacity=".75">
    <path transform="matrix(1.3333 0 0 -1.3333 0 10080)" d="m816.53 6096.9c-10.974-12.272-16.635-35.723-15.078-51.717 1.31-13.466 7.474-24.952 14.217-32.096 5.205 13.313 14.599 30.261 25.696 41.724 11.184 11.552 30.396 34.513 15.047 57.305-16.186 2.295-30.621-4.86-39.882-15.216" fill="url(#linearGradient1047)"/>
   </g>
   <g transform="matrix(.26458 0 0 .26458 -163.78 -977.37)" clip-path="url(#clipPath1050)" opacity=".75">
    <path transform="matrix(1.3333 0 0 -1.3333 0 10080)" d="m811.52 5998.8c1.543 10.606 10.933 32.31 23.555 48.497 4.023 20.346-11.214 41.135-41.429 26.624-3.247-1.56-6.426-3.405-9.498-5.49 2.877-14.829 6.341-33.092 8.009-47.981 5.497-49.053 16.722-39.808 19.363-21.65" fill="url(#linearGradient1049)"/>
   </g>
   <g transform="matrix(.26458 0 0 .26458 -163.78 -977.37)" clip-path="url(#clipPath1053)" opacity=".75">
    <path transform="matrix(1.3333 0 0 -1.3333 0 10080)" d="m813.83 6130.8c-19.986-3.173-37.14-21.542-33.091-44.239 2.65-14.852 8.969-43.986 11.417-65.838 0.405-3.607 0.843-6.862 1.303-9.858 12.913 5.31 22.541 15.16 26.094 27.321 5.611 19.2-3.971 30.087-11.836 47.462-6.821 15.071-1.761 29.995 12.572 45.711-2.289-0.037-4.461-0.242-6.459-0.559" fill="url(#linearGradient1052)"/>
   </g>
   <path d="m93.518-464.06c-5.606 1.0728-7.5152 7.874 0.59584 9.8379 11.065 2.6783 11.672 6.839 16.189 21.507 0 0-1.85-14.505-3.2607-19.326-2.2648-7.7361-8.5245-12.104-12.593-12.104-0.32526 0-0.63641 0.0279-0.93063 0.0843" fill="url(#linearGradient1054)"/>
   <path d="m98.501-471.08c0 3.0879 2.5033 5.5912 5.5908 5.5912 3.0872 0 5.5905-2.5033 5.5905-5.5912 0-3.0875-2.5033-5.5901-5.5905-5.5901-3.0875 0-5.5908 2.5026-5.5908 5.5901" fill="url(#linearGradient1056)"/>
   <g fill="#221e20">
    <path transform="matrix(.35278 0 0 -.35278 79.083 -407.44)" d="m57.44 102.08c-0.91574-0.0616-1.832-0.25513-2.75-0.57813-1.838-0.648-3.5936-1.3943-5.2656-2.2383-3.643-1.712-7.0245-3.8967-10.146-6.5566-3.123-2.66-6.0699-5.4716-8.8399-8.4336-2.829-2.968-5.4569-6.0399-7.8809-9.2149-2.426-3.177-4.7674-6.4672-7.0274-9.8692-1.872-2.956-3.6556-5.8888-5.3516-8.8008-1.697-2.912-3.2996-5.8606-4.8106-8.8496-0.817-0.301-1.6052-0.57064-2.3652-0.80664-0.761-0.237-1.5501-0.4758-2.3691-0.7168-0.469-0.155-1.0099-0.30055-1.6289-0.43555-0.618-0.137-1.1564-0.37303-1.6094-0.70703-0.574-0.343-0.6653-0.69374-0.2793-1.0527 0.387-0.362 0.79275-0.58588 1.2188-0.67188 0.723-0.065 1.4376-0.01284 2.1426 0.16016 0.706 0.172 1.4102 0.34458 2.1152 0.51758l1.1484 0.26953c-0.772-1.675-1.5286-3.3654-2.2676-5.0664-0.74-1.705-6.1133-15.021-6.8203-16.748-0.299-0.802-0.62933-1.6052-0.98633-2.4082-0.359-0.807-0.64066-1.6203-0.84766-2.4453-0.208-0.823-0.28075-1.6523-0.21875-2.4863 0.063-0.834 0.3633-1.6473 0.9043-2.4453 0.14-0.288 0.36397-0.66019 0.66797-1.1172 0.304-0.456 0.67705-0.45685 1.123-0.0059 0.335 0.326 0.57189 0.74763 0.71289 1.2656 0.14 0.521 0.2865 0.96399 0.4375 1.334 0.442 1.292 0.92799 2.5848 1.459 3.8828 0.531 1.296 5.7232 14.195 6.2852 15.494 0.854 2.159 1.7869 4.2972 2.7949 6.4102 1.008 2.111 2.0303 4.2239 3.0703 6.3379l6.1231 2.166c7.375 3.012 14.364 6.8151 20.963 11.414 6.599 4.597 12.481 9.9348 17.652 16.012 1.205 1.468 2.3486 2.9634 3.4336 4.4824 1.082 1.518 2.1315 3.0916 3.1465 4.7266 0.895 1.623 1.7252 3.318 2.4902 5.082 0.765 1.764 1.1662 3.6035 1.2012 5.5234 0.058 1.621-0.33207 2.9978-1.1641 4.1328-0.836 1.135-2.0728 1.8774-3.7168 2.2344-0.913 0.2005-1.8284 0.27061-2.7441 0.20899zm0.81446-4.3848c0.29937 1.25e-4 0.62969-0.02331 0.99219-0.07031 0.726-0.095 1.1643-0.37775 1.3203-0.84375 0.301-0.816 0.29352-1.7143-0.02148-2.6953-0.315-0.982-0.59389-1.8421-0.83789-2.5781-0.354-0.867-0.7393-1.7186-1.1543-2.5586-0.416-0.839-0.86185-1.6645-1.3398-2.4785-1.01-1.692-2.0995-3.3171-3.2695-4.8731-1.17-1.556-2.4192-3.0699-3.7441-4.5469-5.235-6.022-11.078-11.282-17.533-15.779-6.457-4.498-13.313-8.2769-20.566-11.338 0.202 0.494 0.38393 0.86519 0.54492 1.1172 3.779 7.05 8.0085 13.896 12.688 20.535 4.677 6.638 10.149 12.498 16.412 17.58 1.517 1.312 3.101 2.5387 4.752 3.6816 1.65 1.142 3.4008 2.1112 5.2578 2.9102 0.865 0.424 1.7793 0.82036 2.7383 1.1934 0.961 0.371 1.944 0.59588 2.957 0.67188 0.236 0.0475 0.50531 0.07214 0.80469 0.07227zm-18.537-46.715c-0.61575-0.01125-1.2149-0.17163-1.7969-0.48438-0.776-0.418-1.5074-0.95729-2.1934-1.6133-0.686-0.658-1.3139-1.3734-1.8809-2.1484-0.568-0.777-1.0596-1.4327-1.4766-1.9707-0.837-1.016-1.644-2.1484-2.418-3.4023-1.016-0.12-2.0598-0.22345-3.1348-0.31445-1.074-0.09-2.1208-0.19446-3.1348-0.31445-1.554-0.119-3.1928-0.25339-4.9238-0.40039-1.733-0.149-3.345-0.55494-4.8359-1.2109-0.358-0.119-0.53711-0.41753-0.53711-0.89453 0-0.479 0.2388-0.65911 0.7168-0.53711 0.417-0.122 0.86476-0.10603 1.3438 0.04297 0.477 0.149 0.9228 0.25345 1.3418 0.31445 1.075 0.059 2.1496 0.12069 3.2246 0.17969 1.074 0.059 2.2084 0.14953 3.4023 0.26953l4.8359 0.26758c-1.314-2.15-2.4931-4.3739-3.5371-6.6719-1.045-2.299-1.9873-4.6115-2.8223-6.9395l-3.2227-2.8652c-1.015-0.837-2.0897-1.6887-3.2227-2.5527-1.135-0.865-2.3907-1.4779-3.7637-1.8359-0.658-0.239-1.06-0.19323-1.209 0.13477-0.15 0.328-0.17689 0.74491-0.08789 1.2539 0.089 0.506 0.25219 1.0413 0.49219 1.6113 0.237 0.565 0.41611 0.97194 0.53711 1.2109 0.895 2.029 1.9388 4.0271 3.1328 5.9961 1.194 1.972 2.5094 3.8227 3.9414 5.5547 0.179 0.179 0.20884 0.34219 0.08984 0.49219-0.119 0.147-0.28319 0.25345-0.49219 0.31445-0.209 0.057-0.43288 0.11773-0.67188 0.17773-0.239 0.06-0.39022 0.08789-0.44922 0.08789-0.895 0.12-1.5956 5.73e-4 -2.1016-0.35742-0.509-0.357-1.0015-0.86549-1.4785-1.5215-0.358-0.538-0.86744-1.2992-1.5234-2.2832-0.65699-0.985-1.3118-2.1044-1.9687-3.3594-0.656-1.253-1.254-2.5515-1.791-3.8945-0.538-1.343-0.8803-2.6117-1.0293-3.8047-0.149-1.196-0.015607-2.2258 0.40039-3.0918 0.418-0.866 1.2259-1.4471 2.4199-1.7461 0.836-0.178 1.6997-0.13223 2.5957 0.13476 0.896 0.269 1.7607 0.6421 2.5977 1.1211 0.836 0.477 1.626 1.0123 2.373 1.6113 0.746 0.595 1.4167 1.1632 2.0137 1.7012l1.1641 0.98438c-0.179-1.254-0.19297-2.5067-0.04297-3.7617 0.148-1.253 0.72915-2.2381 1.7441-2.9551 0.717-0.479 1.4493-0.70092 2.1953-0.66992 0.747 0.029 1.4783 0.19219 2.1953 0.49219 0.716 0.299 1.4165 0.68506 2.1035 1.1641 0.686 0.477 1.2979 0.92475 1.8359 1.3438 1.433 1.194 2.8042 2.4617 4.1191 3.8047 0.062 0.064 0.12159 0.13227 0.18359 0.19727-0.078-0.442-0.12467-0.88141-0.13867-1.3164-0.03-0.896 0.13319-1.7318 0.49219-2.5078 0.358-0.775 1.0148-1.3422 1.9688-1.6992 0.537-0.239 1.0912-0.33053 1.6582-0.26953 0.567 0.059 1.1193 0.20727 1.6563 0.44727 0.537 0.237 1.0425 0.52162 1.5215 0.84961 0.477 0.328 0.92575 0.64041 1.3438 0.94141 1.075 0.775 2.0292 1.581 2.8652 2.418-0.12-1.314 0.20838-2.4642 0.98438-3.4492 0.776-0.984 1.9113-1.3293 3.4043-1.0293 0.835 0.12 1.6569 0.40356 2.4629 0.85156s1.5672 0.98434 2.2832 1.6113c0.716 0.628 1.4006 1.2837 2.0586 1.9707 0.657 0.686 1.255 1.3278 1.793 1.9238l3.7598 4.3887c0.237 0.357 0.64099 0.89629 1.209 1.6133 0.309 0.39 0.51467 0.7396 0.63867 1.0586 0.569 0.477 1.1454 0.93342 1.7324 1.3574 0.298 0.239 0.58161 0.46383 0.84961 0.67383 0.269 0.208 0.55352 0.37024 0.85352 0.49024 0 0.059 0.02789 0.08984 0.08789 0.08984 0.05899 0 0.11969 0.0308 0.17969 0.0918-0.3-0.539-0.62638-1.0614-0.98438-1.5684-0.358-0.507-0.68833-1.0015-0.98633-1.4785l-2.6856-4.2969c-0.239-0.359-0.53849-0.80776-0.89648-1.3438-0.358-0.538-0.67241-1.0903-0.94141-1.6563-0.268-0.569-0.44516-1.1202-0.53516-1.6582-0.089-0.538 0.04434-1.0136 0.40234-1.4316 0.299-0.418 0.65622-0.62695 1.0742-0.62695 0.417 0 0.82099 0.09054 1.209 0.26953 0.388 0.178 0.77506 0.41484 1.1641 0.71484 0.388 0.297 0.70241 0.53775 0.94141 0.71875 1.254 1.074 2.463 2.1915 3.627 3.3555 1.164 1.165 2.374 2.2535 3.627 3.2695 0.477 0.477 0.95365 0.90983 1.4316 1.2988 0.477 0.387 0.98644 0.79099 1.5234 1.209l3.3125 2.418c0.418 0.298 0.81999 0.56664 1.209 0.80664 0.388 0.237 0.81983 0.47589 1.2988 0.71289 0.059 0 0.10181 0.01592 0.13281 0.04492 0.03 0.03 0.10461 0.04687 0.22461 0.04687-0.418-1.314-1.0001-2.5837-1.7461-3.8047-0.747-1.226-1.4177-2.435-2.0137-3.627-0.239-0.479-0.50865-1.0322-0.80664-1.6582-0.299-0.627-0.5388-1.2837-0.7168-1.9707-0.179-0.687-0.25366-1.3428-0.22266-1.9688 0.029-0.626 0.25193-1.2101 0.66992-1.7461 0.776-0.957 1.7004-1.358 2.7754-1.209 1.075 0.148 2.1347 0.56496 3.1797 1.252 1.044 0.687 2.0301 1.479 2.9551 2.375 0.837 0.81 1.5074 1.4664 2.0273 1.9844-0.066-0.243-0.14041-0.48447-0.19141-0.73047-0.237-1.433-1.98e-4 -2.6887 0.7168-3.7617 0.717-1.075 1.8215-1.5536 3.3125-1.4336 1.373 0.12 2.7004 0.53887 3.9844 1.2559 1.283 0.717 2.5208 1.4892 3.7168 2.3262-0.358-0.538-0.7023-1.0744-1.0293-1.6094-0.329-0.538-0.64341-1.0773-0.94141-1.6133-1.074-1.851-2.1636-3.6719-3.2676-5.4629-1.106-1.792-2.2224-3.584-3.3574-5.375-1.671-1.791-3.3277-3.5671-4.9707-5.3281-1.642-1.76-3.2987-3.566-4.9707-5.418-1.373-1.551-2.7163-3.1033-4.0293-4.6563-1.313-1.551-2.5986-3.1013-3.8516-4.6543-0.656-0.837-1.2968-1.6728-1.9238-2.5098-0.627-0.836-1.21-1.7007-1.748-2.5957-0.416-0.656-0.81999-1.3575-1.209-2.1055-0.387-0.746-0.55019-1.5062-0.49219-2.2832 0.06-0.835 0.40426-1.4032 1.0313-1.7012 0.627-0.298 1.2967-0.38953 2.0137-0.26953 0.836 0.298 1.5683 0.71791 2.1953 1.2539 0.627 0.538 1.2389 1.1042 1.8359 1.7012 1.432 1.434 2.7614 2.9723 3.9844 4.6133 1.224 1.642 2.434 3.2978 3.627 4.9688 2.091 2.925 4.1199 5.8962 6.0899 8.9102 1.97 3.016 3.8795 6.0757 5.7305 9.1797 2.507 2.686 5.0145 5.3148 7.5215 7.8828 2.507 2.565 5.0751 5.1621 7.7031 7.7891 1.234 1.292 2.441 2.57 3.623 3.834-0.329-0.803-0.63358-1.6282-0.89258-2.4902-0.448-1.494-0.5823-2.9537-0.4043-4.3867 0.3-1.375 0.97163-2.3163 2.0156-2.8223 1.044-0.509 2.1952-0.5816 3.4492-0.22461 1.491 0.477 2.8781 1.2233 4.1621 2.2383 1.283 1.015 2.4939 2.0299 3.6289 3.0449l2.9551 2.8652c-0.121-0.477-0.21053-0.95365-0.26953-1.4316-0.06-0.478-0.06-0.9556 0-1.4336 0.059-1.196 0.46003-2.193 1.207-3 0.746-0.805 1.7171-1.1483 2.9121-1.0273 1.254 0.118 2.447 0.50512 3.582 1.1621 1.133 0.656 2.2067 1.3734 3.2227 2.1484 1.491 1.255 2.9109 2.5823 4.2539 3.9863 0.12 0.125 0.23061 0.25877 0.34961 0.38477-0.32-0.971-0.55803-1.9515-0.70898-2.9375-0.209-1.375-0.19308-2.6705 0.0449-3.8945 0.24-1.225 0.92559-2.1962 2.0586-2.9102 1.312-0.839 2.7906-1.0629 4.4336-0.67188 1.641 0.387 3.058 0.99794 4.2539 1.8359 2.088 1.552 3.3716 3.6406 3.8496 6.2676 0.119 0.656-0.0591 0.97041-0.53711 0.94141-0.479-0.032-0.86607-0.19614-1.1641-0.49414-0.89495-1.074-1.9687-2.0909-3.2227-3.0449-0.358-0.238-0.80675-0.52161-1.3438-0.84961-0.538-0.328-1.0902-0.62749-1.6562-0.89649-0.568-0.269-1.1352-0.43319-1.7012-0.49219-0.569-0.059-1.0615 0.08927-1.4785 0.44727-0.299 0.237-0.46119 0.58425-0.49219 1.0313-0.029 0.448-1.6e-4 0.90968 0.0898 1.3887 0.09 0.477 0.20843 0.94068 0.35743 1.3887 0.148 0.448 0.28234 0.81719 0.40234 1.1172 0.359 0.955 0.77491 1.8824 1.2539 2.7773 0.477 0.896 1.0153 1.7906 1.6133 2.6856 0.477 0.835 0.99841 1.641 1.5664 2.416 0.567 0.776 1.1481 1.5551 1.7461 2.3301 0.537 0.656 1.0733 1.2839 1.6113 1.8809 0.537 0.597 0.98575 1.2557 1.3438 1.9707 0.238 0.477 0.14847 0.8193-0.26953 1.0293-0.418 0.208-0.80607 0.34134-1.1641 0.40234-1.432 0.359-2.5972 0.02867-3.4922-0.98633-1.929-2.081-3.5344-4.3894-4.8594-6.9024-0.109-0.073-0.22603-0.13889-0.33203-0.21289-0.717-0.509-1.4633-1.0323-2.2383-1.5703-1.493-1.253-2.9706-2.5495-4.4336-3.8945-1.464-1.343-3.0312-2.5241-4.7012-3.5371-0.479-0.359-0.94068-0.58192-1.3887-0.66992-0.448-0.091-0.93956-0.19641-1.4766-0.31641-0.24 0.059-0.35938 0.28288-0.35938 0.67188 0 0.389 0.0587 0.81984 0.17969 1.2988 0.119 0.478 0.25235 0.9267 0.40235 1.3457 0.149 0.416 0.25445 0.71554 0.31445 0.89453 0.358 1.013 0.77491 1.9991 1.2539 2.9551 0.478 0.954 0.98348 1.8804 1.5215 2.7754l1.6133 2.5957c0.298 0.418 0.61145 0.82099 0.93945 1.209 0.328 0.388 0.55188 0.79294 0.67188 1.2109 0.18 0.416 0.19292 0.80506 0.0449 1.1641-0.15 0.358-0.35896 0.63961-0.62696 0.84961-0.269 0.208-0.5824 0.32842-0.9414 0.35742-0.358 0.029-0.71522-0.0745-1.0742-0.3125-0.537-0.479-1.0156-1.074-1.4316-1.791-0.419-0.717-0.86675-1.3737-1.3438-1.9707-2.567-3.403-5.3153-6.4777-8.2402-9.2227-0.596-0.538-1.2229-1.1201-1.8789-1.7461-0.657-0.626-1.3426-1.1942-2.0586-1.7012-0.717-0.508-1.4493-0.90999-2.1953-1.209-0.747-0.3-1.539-0.44727-2.373-0.44727-0.061 0.178-0.061 0.43272 0 0.76172 0.058 0.326 0.11873 0.54988 0.17773 0.67188 0.119 0.477 0.27022 0.93672 0.44922 1.3867 0.18 0.448 0.35811 0.90972 0.53711 1.3867 0.299 0.837 0.6403 1.6251 1.0293 2.373 0.388 0.746 0.82083 1.5072 1.2988 2.2832 0.477 0.776 0.96956 1.5392 1.4766 2.2852s1.0304 1.5082 1.5684 2.2832c0.47695 0.656 0.8949 1.3127 1.2539 1.9707 0.357 0.656 0.65554 1.3724 0.89454 2.1484 0.179 0.775-0.031 1.1939-0.62696 1.2539-0.597 0.059-1.1055 0.03016-1.5215-0.08984-0.717-0.239-1.33-0.56638-1.8359-0.98438-0.508-0.419-1.0015-0.8976-1.4785-1.4336-1.304-1.565-2.4244-3.2193-3.4024-4.9473-0.029-0.022-0.0599-0.04441-0.0879-0.06641-0.537-0.42-1.1052-0.86675-1.7012-1.3438-2.27-1.911-4.4641-3.8831-6.582-5.9121-2.121-2.03-4.2245-4.0888-6.3145-6.1777 0.298 0.477 0.58357 0.96952 0.85157 1.4785 0.269 0.507 0.55061 0.99956 0.84961 1.4766 0.537 0.896 1.0136 1.8343 1.4316 2.8203 0.418 0.985 0.92544 2.0735 1.5234 3.2695l0.89453 0.80469c0.596 0.417 1.195 0.88067 1.793 1.3887 0.596 0.507 0.95322 1.1488 1.0742 1.9258 0.119 0.717-0.10487 1.2663-0.67187 1.6543-0.568 0.389-1.1809 0.37498-1.8359-0.04101-0.598-0.419-1.1045-0.97321-1.5215-1.6582-0.418-0.687-0.83786-1.3288-1.2559-1.9258-0.06-0.059-0.14858-0.13361-0.26758-0.22461-0.12-0.088-0.44637-0.37262-0.98437-0.84961-0.837-0.597-1.6569-1.196-2.4629-1.791-0.806-0.596-1.6269-1.1632-2.4629-1.7012-0.776-0.536-1.582-1.0614-2.418-1.5684-0.836-0.508-1.7306-0.88114-2.6856-1.1191-0.12-0.061-0.3588-0.13266-0.7168-0.22266-0.359-0.09-0.5958-0.07608-0.7168 0.04492-0.119 0.299-0.14884 0.6413-0.08984 1.0293 0.06 0.389 0.15054 0.7293 0.26953 1.0293 0.597 1.671 1.5214 3.2093 2.7754 4.6133 1.254 1.402 2.5963 2.61 4.0293 3.627 1.134 0.834 2.329 1.5674 3.582 2.1934 1.254 0.627 2.5674 1.0887 3.9414 1.3867 0.716 0.12 1.0742 0.52199 1.0742 1.209 0 0.686-0.35822 1.0591-1.0742 1.1191-0.538 0.121-1.1509 0.121-1.8359 0-0.687-0.119-1.27-0.23942-1.748-0.35742-1.553-0.419-3.0585-1.0459-4.5215-1.8809-1.464-0.836-2.7904-1.8211-3.9844-2.9531-0.477-0.435-0.93382-0.90172-1.3828-1.3867-0.861-0.656-1.7037-1.3236-2.5117-2.0156-1.044-0.898-2.0749-1.7646-3.0898-2.5996-0.658-0.479-1.3138-0.95464-1.9688-1.4316-0.658-0.479-1.3147-0.95755-1.9707-1.4355-0.358-0.178-0.74706-0.40092-1.1641-0.66992-0.418-0.267-0.86676-0.46403-1.3438-0.58203l0.62695 1.4336c0.18 0.536 0.38695 1.0584 0.62695 1.5664 0.237 0.506 0.44795 0.99957 0.62695 1.4766 0.477 1.016 0.96956 2.0319 1.4766 3.0469 0.507 1.015 0.96967 2.0578 1.3887 3.1328 0.237 0.657 0.40319 1.4172 0.49219 2.2832 0.09 0.866-0.19457 1.5695-0.85156 2.1055-0.299 0.298-0.65527 0.49203-1.0723 0.58203-0.418 0.088-0.80606 0.07408-1.1641-0.04492-0.956-0.178-1.8525-0.53627-2.6875-1.0723-0.836-0.538-1.644-1.1081-2.418-1.7031-0.897-0.658-1.7906-1.3595-2.6856-2.1055-0.895-0.747-1.7617-1.5072-2.5977-2.2832-0.895-0.776-1.7766-1.5531-2.6406-2.3281-0.867-0.776-1.7476-1.583-2.6426-2.418l-1.0742-0.98438c0.059 0.12 0.11774 0.2225 0.17774 0.3125 0.058 0.088 0.11969 0.1925 0.17969 0.3125 0.477 0.717 0.92575 1.4185 1.3438 2.1055 0.417 0.685 0.86475 1.4173 1.3438 2.1953 0.537 0.835 1.0883 1.7445 1.6563 2.7305 0.567 0.984 0.61176 1.984 0.13477 3-0.3 0.478-0.74776 0.73077-1.3438 0.75977-0.598 0.03-1.1343-0.01481-1.6113-0.13281-0.658-0.301-1.2849-0.67114-1.8809-1.1191-0.597-0.447-1.1652-0.91167-1.7012-1.3887-0.894-0.894-1.7191-1.7857-2.4941-2.6777-4e-3 -3e-3 -0.0087-0.0048-0.01172-0.0078-0.658-0.538-1.2699-1.1061-1.8359-1.7031-0.568-0.597-1.1799-1.196-1.8359-1.791-0.717-0.716-1.4344-1.4185-2.1504-2.1035-0.716-0.687-1.4921-1.3596-2.3281-2.0156-0.178-0.179-0.43277-0.43372-0.75977-0.76172-0.329-0.328-0.68918-0.64045-1.0762-0.93945-0.389-0.299-0.79199-0.5358-1.209-0.7168-0.419-0.179-0.77522-0.23968-1.0742-0.17969-0.12 0.538-0.08915 1.1041 0.08984 1.7031 0.118 0.716 0.31304 1.4165 0.58203 2.1035 0.269 0.686 0.55156 1.3875 0.85156 2.1035l0.98438 2.2422c0.596 0.834 1.1473 1.6102 1.6563 2.3242 0.505 0.717 0.90999 1.4941 1.209 2.3301 0.18 1.015-0.21007 1.5234-1.1641 1.5234-0.716-0.061-1.3598-0.37541-1.9258-0.94141-0.569-0.569-1.0287-1.1491-1.3867-1.7461-0.597-0.896-1.1811-1.8214-1.748-2.7754-0.567-0.955-1.0894-1.941-1.5664-2.957l-1.1641-1.1641c-0.658-0.657-1.3436-1.3138-2.0606-1.9688-0.716-0.658-1.4922-1.255-2.3262-1.791-0.479-0.359-1.0302-0.71722-1.6582-1.0742-0.626-0.359-1.2698-0.47938-1.9258-0.35938-0.119 0.059-0.14689 0.31568-0.08789 0.76367 0.06 0.447 0.11873 0.72961 0.17773 0.84961 0.358 1.312 0.86644 2.4464 1.5234 3.4023 0.596 1.074 1.2667 2.1039 2.0137 3.0898 0.746 0.984 1.5361 1.9234 2.373 2.8184 0.597 0.597 1.2686 1.2258 2.0156 1.8828 0.746 0.656 1.5361 1.2391 2.373 1.748 0.835 0.505 1.7017 0.92496 2.5977 1.252 0.896 0.328 1.7906 0.46134 2.6856 0.40234 0.478-0.059 0.72977 0.13404 0.75977 0.58203 0.03 0.448-0.16503 0.73256-0.58203 0.85156-0.299 0.12-0.61051 0.19166-0.9375 0.22266-0.329 0.03-0.64341 0.07477-0.94141 0.13477-1.195 0.059-2.3602-0.09022-3.4941-0.44922-1.135-0.358-2.2087-0.83469-3.2227-1.4297-2.031-1.017-3.8509-2.3603-5.4629-4.0313-0.419-0.435-0.81536-0.88466-1.1934-1.3477-1.036-0.803-2.0477-1.6309-3.0137-2.5039-1.253-1.134-2.4789-2.2992-3.6719-3.4922-0.776-0.717-1.5232-1.4016-2.2402-2.0586-0.716-0.658-1.4912-1.3147-2.3262-1.9707-0.538-0.479-1.0743-0.89491-1.6113-1.2539-0.538-0.357-1.1649-0.59685-1.8809-0.71484h-0.0918v0.08789h-0.08789c-0.358 0.299-0.55303 0.76168-0.58203 1.3887-0.032 0.626 0.02969 1.2977 0.17969 2.0137 0.148 0.717 0.32516 1.3876 0.53516 2.0156 0.209 0.627 0.37219 1.1215 0.49219 1.4785 0.119 0.298 0.22445 0.59653 0.31445 0.89453 0.09 0.299 0.19345 0.59749 0.31445 0.89648l2.9551 3.0449c1.612 1.791 3.2071 3.6249 4.7891 5.5059 1.582 1.881 3.0596 3.8353 4.4336 5.8652h0.85156c0.269 0 0.54961 0.02984 0.84961 0.08984 5.85 0.179 11.687 0.3163 17.508 0.4043 5.821 0.09 11.656 0.01339 17.508-0.22461 1.791-0.12 3.595-0.22445 5.416-0.31445 1.821-0.088 3.5981-0.1945 5.3301-0.3125 0.596-0.122 1.0428-0.09011 1.3418 0.08789 0.298 0.181 0.27011 0.59786-0.08789 1.2559-0.358 0.538-0.74706 1.0136-1.1641 1.4316-0.419 0.417-0.95729 0.74733-1.6133 0.98633-0.837 0.298-1.7763 0.43134-2.8203 0.40234-1.045-0.031-2.0152-0.01508-2.9102 0.04492l-5.6426 0.17969c-1.97 0.059-3.9392 0.08984-5.9102 0.08984-1.97 0-3.972-0.06069-6-0.17969-6.927-0.179-13.821-0.53722-20.686-1.0742l1.791 3.3125c0.297 0.477 0.59553 1.0004 0.89453 1.5684 0.298 0.566 0.38953 1.1779 0.26953 1.8359-0.119 0.596-0.37372 1.0866-0.76172 1.4766-0.388 0.387-0.85167 0.64077-1.3887 0.75977-0.209 0.02975-0.41585 0.04281-0.62109 0.03906zm-0.45313-2.9023c0.058 0 0.08984-0.12038 0.08984-0.35938-0.179 0.12-0.21084 0.23938-0.08984 0.35938zm-0.17969-1.7031-0.53711-1.0742c-0.299-0.658-0.62638-1.253-0.98438-1.791-0.358-0.537-0.71622-1.1052-1.0742-1.7012-0.3 0-0.56964-0.01492-0.80664-0.04492-0.24-0.03-0.50769-0.04492-0.80469-0.04492l2.2383 2.8652c0.299 0.298 0.61045 0.59749 0.93945 0.89649 0.328 0.298 0.6713 0.59553 1.0293 0.89453zm-6.1777-7.4316h1.5215c-1.253-1.731-2.4769-3.2843-3.6699-4.6563l-1.8809-2.1504c0.656 1.194 1.3108 2.3602 1.9688 3.4941 0.656 1.133 1.3436 2.2395 2.0605 3.3125zm-13.316-29.455c-2.353 0-4.2383-1.7891-4.2383-4.8281 0-3.013 1.8853-4.8027 4.2383-4.8027 1.224 0 2.6414 0.49524 3.3984 1.1152v4.457h-3.7422v-1.5273h2.0898v-1.9258c-0.413-0.316-0.99105-0.48242-1.623-0.48242-1.486 0-2.5449 1.047-2.5449 3.166 0 2.035 1.018 3.1914 2.627 3.1914 0.798 0 1.5002-0.31654 2.1602-0.89453l0.72852 1.4023c-0.825 0.757-1.8008 1.1289-3.0938 1.1289zm9.0938 0c-2.476 0-4.0723-1.9811-4.0723-4.8281 0-2.82 1.5963-4.8027 4.0723-4.8027 2.504 0 4.1133 1.9828 4.1133 4.8027 0 2.847-1.6093 4.8281-4.1133 4.8281zm-28.684-0.13672v-9.3555h5.8457v1.541h-4.0859v7.8145zm46.305 0v-9.3555h1.7617v2.627h2.0918c1.555 0 2.916 1.2518 2.916 3.3438 0 2.31-1.361 3.3848-2.916 3.3848zm26.127 0v-9.3555h1.7598v3.8652h1.2949c0.88-1.073 1.5272-4.0039 3.4941-4.0039 0.509 0 1.0577 0.16442 1.3887 0.35742l-0.19141 1.377c-0.221-0.124-0.52381-0.20703-0.75781-0.20703-1.087 0-1.8716 2.3807-2.4766 3.1777l2.6563 4.5254v0.26367h-1.7891l-2.1465-3.9629h-1.4727v3.9629zm-63.024-0.0019532-3.1367-9.3535h1.748l0.60547 1.9395h3.5352l0.5918-1.9395h1.748l-3.0547 9.3535zm27.363 0-3.1367-9.3535h1.748l0.60547 1.9395h3.5352l0.5918-1.9395h1.748l-3.0547 9.3535zm19.84 0-3.1387-9.3535h1.748l0.60547 1.9395h3.5352l0.5918-1.9395h1.748l-3.0547 9.3535zm6.5742 0v-9.3535h1.7617v3.3984h0.55078c0.991-0.702 2.256-3.5371 4.127-3.5371 0.509 0 1.128 0.16638 1.459 0.35938l-0.19336 1.4004c-0.248-0.137-0.59185-0.23242-0.83984-0.23242-0.853 0-1.6503 1.1695-2.4063 2.0645 1.293 0.247 2.2695 1.3197 2.2695 2.8477 0 1.843-1.1553 3.0527-2.8203 3.0527zm-34.502-1.5254c1.417 0 2.3789-1.0181 2.3789-3.1641 0-2.118-0.96192-3.1387-2.3789-3.1387-1.376 0-2.3398 1.0207-2.3398 3.1387 0 2.146 0.96386 3.1641 2.3398 3.1641zm19.383-0.013672h1.707c0.825 0 1.5117-0.63376 1.5117-1.8438 0-1.115-0.68672-1.8027-1.5117-1.8027h-1.707zm16.881 0h1.6797c0.866 0 1.4844-0.50935 1.4844-1.5273 0-0.936-0.61838-1.5-1.4844-1.5h-1.6797zm-54.52-0.20703 1.3066-4.3613h-2.6699zm27.363 0 1.3066-4.3613h-2.6699zm19.838 0 1.3066-4.3613h-2.6699zm56.725-1.6758v-5.9316h0.56641v4.9727l3.498-4.9727h0.51563v5.9316h-0.57618v-4.9902l-3.498 4.9902zm7.8535 0-2.1543-5.9316h0.57617l0.51367 1.4492h2.6953l0.48828-1.4492h0.56836l-2.041 5.9316zm2.6719 0v-0.57617h1.918v-5.3555h0.57617v5.3555h1.8066v0.57617zm5.3574 0v-3.5684c0-1.457 0.68888-2.4668 2.1719-2.4668 1.492 0 2.1816 1.1228 2.1816 2.4668v3.5684h-0.56641v-3.5332c0-1.116-0.48924-1.9629-1.6152-1.9629-1.116 0-1.5957 0.77613-1.5957 1.9531v3.543zm6.1094 0v-5.9336h0.57617v2.2344h0.93359c0.55-0.402 1.3533-2.3203 2.4863-2.3203 0.306 0 0.61912 0.10552 0.82812 0.22852l-0.0684 0.47852c-0.192-0.114-0.43672-0.20117-0.63672-0.20117-0.725 0-1.371 1.1955-1.877 1.8145 0.933 0.017 1.7363 0.71622 1.7363 1.8242 0 1.222-0.80349 1.875-1.7715 1.875zm5.7969 0v-5.9316h3.8535v0.51367h-3.3047v2.3203h2.7656v0.51563h-2.7656v2.0664h3.3047v0.51563zm4.877 0v-0.51563h3.0117l-3.0117-4.9805v-0.43555h3.7441v0.51367h-3.0195l3.0195 4.9824v0.43555zm6.5625 0-2.1543-5.9316h0.57617l0.51563 1.4492h2.6953l0.48828-1.4492h0.56641l-2.041 5.9316zm-16.66-0.51367h1.5c0.716 0 1.3262-0.42733 1.3262-1.3613 0-0.864-0.61018-1.3535-1.3262-1.3535h-1.5zm-14.4-0.070313 1.1602-3.4473h-2.3809zm31.375 0 1.1602-3.4473h-2.3809zm-37.311-8.1719c-1.491 0-2.5547-1.1355-2.5547-3.0625 0-1.911 1.0637-3.0449 2.5547-3.0449 0.838 0 1.6134 0.43483 2.0664 0.92383l-0.26172 0.46289c-0.392-0.419-1.0817-0.8457-1.7617-0.8457-1.221 0-2.0234 0.90691-2.0234 2.5039 0 1.596 0.78489 2.5215 1.9629 2.5215 0.986 0 1.5347-0.51505 1.5527-1.623l0.52344 0.095703c-0.026 1.387-0.76659 2.0684-2.0586 2.0684zm5.7344-0.00195c-1.518 0-2.5918-1.2286-2.5918-3.0606 0-1.814 1.0738-3.0449 2.5918-3.0449 1.526 0 2.5996 1.2309 2.5996 3.0449 0 1.832-1.0736 3.0606-2.5996 3.0606zm30.967 0c-1.518 0-2.5918-1.2286-2.5918-3.0606 0-1.814 1.0738-3.0449 2.5918-3.0449 1.526 0 2.5976 1.2309 2.5976 3.0449 0 1.832-1.0717 3.0606-2.5976 3.0606zm-16.154-0.00781c-1.318 0-1.9824-0.79421-1.9824-1.6582 0-0.75 0.43677-1.1953 1.1348-1.4043l1.0371-0.29688c0.689-0.192 1.0293-0.48653 1.0293-1.0195 0-0.759-0.61794-1.1875-1.4199-1.1875-0.629 0-1.2297 0.27886-1.5527 0.50586l-0.14063-0.54102c0.323-0.218 0.99399-0.49609 1.709-0.49609 1.195 0 1.9902 0.69814 1.9902 1.7441 0 0.812-0.49733 1.2214-1.3613 1.4824l-1.0469 0.31445c-0.515 0.14-0.81055 0.4276-0.81055 0.93359 0 0.576 0.45269 1.0918 1.4297 1.0918 0.541 0 1.1874-0.20131 1.5274-0.44531l0.17383 0.52344c-0.375 0.236-1.0548 0.45313-1.7168 0.45313zm4.7031-0.078125-2.1543-5.9316h0.57617l0.51367 1.4473h2.6953l0.48828-1.4473h0.56836l-2.041 5.9316zm3.8574 0v-5.9316h2.1719c1.152 0 1.7363 0.60232 1.7363 1.5703 0 0.889-0.48801 1.3678-1.291 1.5078 0.541 0.201 0.89062 0.63718 0.89062 1.3262 0 1.046-0.63778 1.5273-1.6758 1.5273zm11.678 0v-5.9316h0.57618v2.2324h0.93359c0.55-0.402 1.3533-2.3203 2.4863-2.3203 0.306 0 0.62008 0.10356 0.83008 0.22656l-0.0723 0.48047c-0.191-0.114-0.43477-0.20117-0.63477-0.20117-0.725 0-1.371 1.1955-1.877 1.8145 0.93398 0.018 1.7363 0.71427 1.7363 1.8223 0 1.222-0.80249 1.877-1.7715 1.877zm-30.965-0.00195v-5.9297h0.57617v4.9707l2.0664-3h0.13086l2.0684 3v-4.9707h0.56641v5.9297h-0.54883l-2.1543-3.1309-2.1465 3.1309zm-4.0859-0.46094c1.178 0 2.0312-0.92373 2.0312-2.5117 0-1.57-0.85325-2.4961-2.0312-2.4961-1.177 0-2.0234 0.9261-2.0234 2.4961 0 1.588 0.84644 2.5117 2.0234 2.5117zm30.967 0c1.178 0 2.0312-0.92373 2.0312-2.5117 0-1.57-0.85327-2.4961-2.0312-2.4961-1.178 0-2.0254 0.9261-2.0254 2.4961 0 1.588 0.8474 2.5117 2.0254 2.5117zm-7.0176-0.042969h1.1875c0.742 0 1.168-0.33146 1.168-1.0645 0-0.689-0.47189-1.0547-1.2129-1.0547h-1.1426zm11.678-0.00977h1.5c0.716 0 1.3262-0.42733 1.3262-1.3613 0-0.864-0.61017-1.3516-1.3262-1.3516h-1.5zm-15.797-0.068359 1.1602-3.4473h-2.3809zm4.1192-2.5742h1.3789c0.855 0 1.3691-0.38374 1.3691-1.1777 0-0.672-0.40089-1.0918-1.2129-1.0918h-1.5352zm1.1426-3.9258c-0.323 0-0.59166-0.30457-0.72266-0.60156l0.20117-0.25391c0.113 0.236 0.26849 0.4375 0.52149 0.4375 0.349 0 0.61222-0.59375 1.0742-0.59375 0.332 0 0.57468 0.27956 0.72265 0.60156l-0.20898 0.25391c-0.096-0.236-0.26067-0.43555-0.51367-0.43555-0.357 0-0.59422 0.5918-1.0742 0.5918zm-65.346-0.84571c-1.194-1.793-2.5084-3.6437-3.9414-5.5547-0.656-0.836-1.2968-1.6559-1.9238-2.4609-0.627-0.807-1.2986-1.599-2.0156-2.375-0.237-0.298-0.52256-0.6393-0.85156-1.0293-0.327-0.387-0.6713-0.7303-1.0293-1.0293 0.239 0.419 0.49272 0.80506 0.76172 1.1641 0.268 0.357 0.46303 0.65654 0.58203 0.89453l2.5977 3.4941c0.955 1.194 1.9102 2.3572 2.8652 3.4902 0.955 1.135 1.9401 2.2713 2.9551 3.4063zm54.297-0.82813c-1.518 0-2.5918-1.2305-2.5918-3.0625 0-1.814 1.0738-3.043 2.5918-3.043 1.527 0 2.5996 1.229 2.5996 3.043 0 1.832-1.0726 3.0625-2.5996 3.0625zm6.3184 0c-1.492 0-2.5547-1.1345-2.5547-3.0625 0-1.762 0.89904-2.8606 2.207-3.0176l-0.17579-0.77539 0.0176-0.03711c0.113 0.044 0.30513 0.07031 0.45313 0.07031 0.271 0 0.41211-0.11269 0.41211-0.30469 0-0.244-0.18585-0.35742-0.46485-0.35742-0.166 0-0.32193 0.0437-0.46093 0.0957l-0.0703-0.25391c0.183-0.07 0.37579-0.10547 0.55079-0.10547 0.41797 0 0.75781 0.21891 0.75781 0.62891 0 0.322-0.23591 0.55078-0.62891 0.55078-0.069 0-0.17337-0.01816-0.23437-0.03516l0.10547 0.49805h0.0859c0.837 0 1.6154 0.43583 2.0684 0.92383l-0.26171 0.46094c-0.393-0.418-1.0827-0.84375-1.7637-0.84375-1.221 0-2.0234 0.90596-2.0234 2.502 0 1.597 0.78592 2.5215 1.9629 2.5215 0.986 0 1.5357-0.51505 1.5527-1.623l0.52344 0.09766c-0.026 1.386-0.7676 2.0664-2.0586 2.0664zm10.988 0c-1.518 0-2.5898-1.2305-2.5898-3.0625 0-1.814 1.0718-3.043 2.5898-3.043 1.527 0 2.5996 1.229 2.5996 3.043 0 1.832-1.0726 3.0625-2.5996 3.0625zm-39.318-0.08789v-5.9316h3.8574v0.51562h-3.3066v2.3203h2.7656v0.51367h-2.7656v2.0684h3.3066v0.51367zm7.2012 0v-5.9316h3.8555v0.51562h-3.3066v2.3203h2.7656v0.51367h-2.7656v2.0684h3.3066v0.51367zm5.3242 0v-5.9316h0.57617v4.9727l2.0684-3h0.12891l2.0684 3v-4.9727h0.56641v5.9316h-0.54883l-2.1543-3.1309-2.1465 3.1309zm20.754 0-2.1543-5.9316h0.57422l0.51562 1.4492h2.6953l0.48828-1.4492h0.56836l-2.041 5.9316zm-11.268-0.46094c1.178 0 2.0332-0.92568 2.0332-2.5137 0-1.57-0.85523-2.4941-2.0332-2.4941-1.178 0-2.0234 0.92415-2.0234 2.4941 0 1.588 0.84544 2.5137 2.0234 2.5137zm17.307 0c1.178 0 2.0332-0.92568 2.0332-2.5137 0-1.57-0.8552-2.4941-2.0332-2.4941s-2.0234 0.92415-2.0234 2.4941c0 1.588 0.84544 2.5137 2.0234 2.5137zm-5.7246-0.12305 1.1602-3.4453h-2.3809z" clip-path="url(#clipPath1058)"/>
    <path transform="matrix(.35278 0 0 -.35278 86.838 -422.79)" d="m0 0c0.298 0 0.611 0.045 0.94 0.134 0.328 0.09 0.611 0.194 0.851 0.314 0.716 0.298 1.417 0.582 2.105 0.851 0.685 0.268 0.969 0.879 0.85 1.836-0.121 0.656-0.448 1.133-0.985 1.432-0.538 0.298-1.105 0.328-1.701 0.09-0.658-0.358-1.255-0.896-1.792-1.612-0.12-0.179-0.239-0.329-0.358-0.447-0.12-0.121-0.239-0.301-0.358-0.538-0.06-0.06-0.09-0.15-0.09-0.268 0-0.062-0.016-0.105-0.044-0.135-0.031-0.031-0.045-0.075-0.045-0.135v-0.089c-0.3-0.239-0.374-0.537-0.224-0.895 0.148-0.359 0.432-0.538 0.851-0.538" clip-path="url(#clipPath1078)"/>
    <path transform="matrix(.35278 0 0 -.35278 136.18 -423.65)" d="m0 0c-0.418 0.895-0.984 1.312-1.701 1.254-0.717-0.06-1.388-0.374-2.016-0.941-0.626-0.567-1.119-1.284-1.477-2.149-0.358-0.866-0.389-1.656-0.09-2.372 0.359-0.776 0.881-1.106 1.567-0.986 0.687 0.119 1.358 0.449 2.016 0.986 0.656 0.536 1.164 1.208 1.522 2.014s0.417 1.536 0.179 2.194" clip-path="url(#clipPath1082)"/>
   </g>
  </g>
 </g>
</svg>
