<?xml version="1.0" encoding="UTF-8"?>
<!-- Created with Inkscape (http://www.inkscape.org/) -->
<svg width="199.8mm" height="72.319mm" version="1.1" viewBox="0 0 199.8 72.319"
   xmlns="http://www.w3.org/2000/svg">
   <g transform="translate(41.275 -66.94)">
      <path transform="matrix(.35278 0 0 -.35278 59.848 42.843)"
         d="m-286.65-68.304v-205h566.37c-62.54 100.31-121.8 164.18-169.71 205z"
         fill="#808080" />
      <path transform="matrix(.35278 0 0 -.35278 51.542 51.268)"
         d="m-263.1-44.424v-205h561.26c-79.974 108.53-152.03 170.02-205.42 205z"
         fill="#ffffff" />
      <path transform="matrix(.35278 0 0 -.35278 8.3563 88.808)"
         d="m3.1985 12.792c-3.768 0-6.6911-1.0275-8.7671-3.0835-2.074-2.056-3.1099-4.8359-3.1099-8.3379v-31.411h8.9077v23.187h7.6523v6.854h-7.8823v1.3125c0 2.97 1.3522 4.4561 4.0562 4.4561 1.372 0 2.5711-0.36491 3.5991-1.0869l2.3408 6.4541c-0.798 0.533-1.7971 0.942-2.9971 1.229-1.199 0.283-2.4668 0.42627-3.7998 0.42627zm64.857-11.65c-2.094 0-4.0176-0.35169-5.7686-1.0547-1.752-0.707-3.2175-1.705-4.3975-3v3.5977h-8.5078v-30.725h8.9077v15.192c0 2.74 0.66651 4.8068 1.9995 6.1978 1.333 1.387 3.1212 2.0845 5.3672 2.0845 2.018 0 3.5604-0.60029 4.6274-1.8003 1.065-1.2 1.5967-3.0181 1.5967-5.4551v-16.219h8.9106v17.59c0 4.492-1.1717 7.8825-3.5127 10.167-2.342 2.283-5.4147 3.4248-9.2227 3.4248zm-55.293-0.45703v-17.36c0-4.571 1.1805-8.0154 3.5405-10.337 2.362-2.323 5.5587-3.4834 9.5947-3.4834 1.903 0 3.6721 0.35069 5.3101 1.0547 1.637 0.705 3.0461 1.7231 4.2261 3.0571v-3.6563h8.4536v30.725h-8.9106v-15.19c0-2.741-0.64592-4.8068-1.9409-6.1978-1.294-1.389-3.0091-2.083-5.1401-2.083-4.15 0-6.2241 2.4748-6.2241 7.4238v16.047z"
         fill="#7fb932" />
      <path transform="matrix(.35278 0 0 -.35278 44.581 90.407)"
         d="m-126.87 8.6951c-1.1445-0.040323-2.3089-0.35902-3.435-0.95508-4.313-2.285-4.9031-8.3619-1.1221-11.858 8.648-7.996 6.3699-17.501 6.5889-17.791 0 0 6.7139 5.7502 7.1089 15.514 0.41437 10.224-4.1812 15.264-9.1406 15.089zm-28.926-2.5986c-5.4599 0.030026-9.3051-3.2775-10.242-8.313-1.195-6.427 4.6917-12.108 11.514-11.051 15.587 2.418 23.667-7.8844 24.152-7.9014 0 0-0.44431 11.833-10.362 20.38-5.5917 4.8182-10.815 6.8614-15.062 6.8848zm158.17-0.78223c-1.856 0-3.4928-0.30692-4.9058-0.91992-1.417-0.617-2.5078-1.4788-3.2798-2.5928-0.77-1.116-1.1558-2.3994-1.1558-3.8584 0-1.086 0.24256-2.1359 0.72656-3.1509 0.487-1.015 1.2714-2.0779 2.3584-3.1919-2.314-1.286-3.9927-2.6348-5.0347-4.0488-1.045-1.413-1.5659-3.0482-1.5659-4.9072 0-1.571 0.49396-2.9867 1.481-4.2437 0.986-1.256 2.3488-2.2331 4.0898-2.9341 1.744-0.699 3.6996-1.0503 5.8726-1.0503 3.827 0 7.1683 1.1143 10.028 3.3413l3.5991-3.3413 3.6416 4.2422-3.5142 3.2563c1.257 1.886 2.1727 4.1585 2.7437 6.8145l-5.3555 1.6714c-0.344-1.741-0.844-3.3004-1.5-4.6714l-5.4858 5.1006c2.056 1.115 3.5495 2.2722 4.4795 3.4702 0.926 1.201 1.3916 2.5717 1.3916 4.1147 0 2.114-0.7874 3.7921-2.3584 5.0361-1.57 1.242-3.6564 1.8633-6.2563 1.8633zm0-4.5425c0.945 0 1.673-0.22908 2.187-0.68408 0.515-0.459 0.77051-1.0588 0.77051-1.8018 0-0.716-0.2864-1.3787-0.8584-1.9937-0.572-0.615-1.584-1.3051-3.041-2.0771-0.914 0.884-1.5278 1.5936-1.8428 2.1226-0.314 0.528-0.47168 1.0899-0.47168 1.6919 0 0.798 0.29291 1.4562 0.87891 1.9702 0.584 0.517 1.3794 0.77197 2.3774 0.77197zm-2.5723-12.599 7.2437-6.7705c-1.658-1.173-3.5283-1.7578-5.6133-1.7578-1.63 0-2.9304 0.34332-3.8994 1.0283-0.972 0.685-1.4575 1.5847-1.4575 2.6997 0 0.943 0.28447 1.7853 0.85547 2.5283 0.573 0.743 1.5301 1.501 2.8711 2.272zm-148.37-5.2764c-4.7039 0.0692-6.8354-2.7689-5.8828-5.7363 0.811-2.524 4.0038-3.417 6.2358-1.73 5.101 3.865 9.9656 1.7435 10.143 1.8325 0 0-2.4361 4.1383-7.6201 5.2793-1.0442 0.22984-2.0044 0.34168-2.8755 0.35449zm182.87-24.661c-4.9599 0.17527-9.5558-4.8649-9.1406-15.089 0.395-9.764 7.1089-15.514 7.1089-15.514 0.217 0.291-2.0606 9.7965 6.5874 17.791 3.782 3.498 3.1914 9.5739-1.1206 11.858-1.1263 0.59625-2.2905 0.91463-3.4351 0.95508zm28.925-2.5986c-4.2467-0.02343-9.4693-2.0663-15.06-6.8862-9.919-8.544-10.364-20.376-10.364-20.376 0.486 0.016 8.5658 10.317 24.154 7.8999 6.821-1.057 12.708 4.6238 11.512 11.051-0.93656 5.0344-4.7822 8.3416-10.242 8.3115zm-7.2305-23.199c-0.87098-0.01267-1.83-0.1248-2.874-0.35449-5.185-1.142-7.6216-5.2808-7.6216-5.2808 0.177-0.088 5.0426 2.0354 10.143-1.8296 2.232-1.687 5.4258-0.79402 6.2358 1.73 0.95259 2.9658-1.1795 5.8033-5.8828 5.7349z"
         fill="#00add8" />
      <path transform="matrix(.35278 0 0 -.35278 8.3563 106.58)"
         d="m3.1985 12.792c-3.768 0-6.6911-1.0255-8.7671-3.0835-2.074-2.055-3.1099-4.8349-3.1099-8.3379v-31.409h8.9077v23.186h7.6523v6.854h-7.8823v1.314c0 2.97 1.3506 4.4531 4.0576 4.4531 1.37 0 2.5687-0.36252 3.5947-1.0825l2.3438 6.4512c-0.798 0.532-1.7995 0.943-2.9985 1.229-1.199 0.284-2.4663 0.42627-3.7983 0.42627zm69.088-0.43652v-28.633c0-4.529 1.2178-8.0309 3.6548-10.506 2.434-2.475 5.957-3.7104 10.563-3.7104 2.285 0 4.2629 0.34139 5.9399 1.0254 1.675 0.687 3.0845 1.7915 4.2275 3.3135 1.143-1.522 2.5589-2.6265 4.2539-3.3135 1.694-0.684 3.6455-1.0254 5.8535-1.0254 4.57 0 8.0899 1.2355 10.566 3.7104 2.474 2.475 3.7134 5.9769 3.7134 10.506v16.964h-8.9121v-16.277c0-2.553-0.43797-4.427-1.314-5.625-0.874-1.2-2.2444-1.7974-4.1104-1.7974-1.904 0-3.3126 0.6072-4.2246 1.8252-0.915 1.219-1.3726 3.0832-1.3726 5.5972v16.277h-8.9077v-16.277c0-2.514-0.4571-4.3782-1.3711-5.5972-0.914-1.218-2.3221-1.8252-4.2261-1.8252-1.865 0-3.2368 0.59736-4.1118 1.7974-0.878 1.198-1.3154 3.072-1.3154 5.625v27.946zm-58.909-0.021973v-32.209c0-3.389 0.96911-6.0041 2.9121-7.8501 1.941-1.848 4.6458-2.7686 8.1108-2.7686 1.599 0 3.139 0.24621 4.623 0.74121l-0.39844 6.9097c-0.267-0.153-0.63728-0.2849-1.1133-0.3999-0.477-0.115-0.94339-0.17139-1.4004-0.17139-1.218 0-2.1622 0.35215-2.8271 1.0562-0.665 0.704-0.99902 1.7055-0.99902 2.9985v31.693zm35.953-11.19c-3.238 0-6.138-0.67781-8.71-2.0288-2.569-1.352-4.5784-3.226-6.0234-5.625-1.449-2.399-2.1709-5.1215-2.1709-8.1665 0-3.046 0.7219-5.7675 2.1709-8.1665 1.445-2.399 3.4544-4.275 6.0234-5.625 2.572-1.351 5.472-2.0259 8.71-2.0259 3.236 0 6.1291 0.67488 8.6821 2.0259 2.548 1.35 4.5476 3.226 5.9956 5.625 1.445 2.399 2.1694 5.1205 2.1694 8.1665 0 3.045-0.72444 5.7675-2.1694 8.1665-1.448 2.399-3.4476 4.273-5.9956 5.625-2.553 1.351-5.4461 2.0288-8.6821 2.0288zm0-7.311c2.284 0 4.1595-0.77099 5.6235-2.313 1.466-1.54 2.2017-3.6073 2.2017-6.1963 0-2.591-0.73566-4.6543-2.2017-6.1963-1.464-1.542-3.3395-2.313-5.6235-2.313-2.283 0-4.1688 0.77099-5.6528 2.313-1.486 1.542-2.2295 3.6053-2.2295 6.1963 0 2.589 0.74349 4.6563 2.2295 6.1963 1.484 1.542 3.3698 2.313 5.6528 2.313z"
         fill="#2756a1" />
   </g>
</svg>